<svg width="25" height="24" viewBox="0 0 25 24" fill="none" xmlns="http://www.w3.org/2000/svg">
<g clip-path="url(#clip0_2676_30555)">
<path d="M23.8281 9.19014L16.4868 8.1189L13.2036 1.43838C12.9164 0.854015 12.0838 0.853733 11.7965 1.43838L8.51333 8.1189L1.172 9.19014C0.529954 9.28386 0.272094 10.0788 0.737188 10.534L6.04939 15.7341L4.7953 23.0766C4.74477 23.3722 4.86575 23.6709 5.10744 23.8472C5.34903 24.0234 5.66928 24.0467 5.93366 23.9071L12.5 20.4405C19.6487 24.2146 19.1577 23.9977 19.4314 23.9977C19.9149 23.9977 20.2873 23.5599 20.2047 23.0766L18.9507 15.7341L24.2629 10.534C24.7275 10.0792 24.4707 9.28396 23.8281 9.19014Z" fill="#F7AC16"/>
<path d="M12.5 1C12.2008 1 11.9283 1.17084 11.7964 1.43922L8.51325 8.12019L1.172 9.1915C0.529954 9.28523 0.272095 10.0802 0.737187 10.5355L6.04937 15.7359L4.79528 23.0789C4.74475 23.3745 4.86573 23.6732 5.10742 23.8495C5.34901 24.0258 5.66926 24.0491 5.93364 23.9095L12.5 20.4427H12.5V1Z" fill="#F2D422"/>
<path d="M1.1584 9.0793C0.529347 9.17372 0.276708 9.97464 0.732387 10.4332L5.93706 15.6722L4.70835 23.0697C4.65884 23.3675 4.77738 23.6684 5.01417 23.8461C5.25087 24.0236 5.56464 24.047 5.82366 23.9064L12.2571 20.4139C19.2611 24.2162 18.78 23.9977 19.0481 23.9977C19.2075 23.9977 19.3661 23.9465 19.5 23.8461L8.35107 8L1.1584 9.0793Z" fill="#F7AC16"/>
<path d="M8.5 13.9049C3.06114 8.38063 3.29492 8.6767 3.22194 8.3902C3.19223 8.27512 3.18614 8.14122 3.21844 8L1.1423 8.31433C0.52863 8.40728 0.282167 9.1957 0.726706 9.64715L5.80414 14.8044L4.60547 22.0865C4.55717 22.3797 4.67281 22.6759 4.90381 22.8508C5.13473 23.0256 5.44083 23.0486 5.69352 22.9102L7.53883 21.8993C7.349 21.7212 7.25751 21.453 7.30133 21.187L8.5 13.9049Z" fill="#F48B19"/>
<path d="M0.737704 9.79219L6.12716 14.8925L4.85483 22.0943C4.80356 22.3842 4.92631 22.6772 5.17151 22.8501C5.41662 23.023 5.74152 23.0458 6.00974 22.9089L12.6716 19.5088C19.9243 23.2105 19.4261 22.9977 19.7037 22.9977C20.1943 22.9977 20.5721 22.5684 20.4883 22.0943L19.216 14.8925L0.536207 9C0.443138 9.32388 0.536302 9.60169 0.737704 9.79219Z" fill="#F2D422"/>
<path d="M0.72402 9.79232L5.80321 14.8935L4.60412 22.0964C4.55581 22.3864 4.67148 22.6794 4.90257 22.8524C5.13357 23.0253 5.43977 23.0481 5.69255 22.9112L7.5385 21.9113C7.3486 21.7351 7.25708 21.4698 7.30092 21.2067L8.5 14.0038L5.0096 10.4983L0.534122 9C0.446412 9.32394 0.534212 9.60179 0.72402 9.79232Z" fill="#EFB616"/>
<path d="M4.51156 22.0943C4.4603 22.3842 4.58303 22.6772 4.8282 22.8501C5.07327 23.023 5.39814 23.0458 5.66632 22.9089L12.3273 19.5088C19.5791 23.2105 19.081 22.9977 19.3586 22.9977C19.8491 22.9977 20.2268 22.5684 20.1431 22.0943L18.8709 14.8925L24.2598 9.79215C24.4766 9.58683 24.5547 9.2797 24.4611 9L5.78373 14.8925L4.51156 22.0943Z" fill="#F7AC16"/>
<path d="M4.51116 22.097C4.46169 22.3868 4.58013 22.6796 4.81673 22.8525C5.05324 23.0253 5.36676 23.0481 5.62557 22.9113L7.5156 21.912C7.32117 21.7359 7.22747 21.4709 7.27235 21.2079L8.50006 14.0098L8.49001 14L5.73887 14.8989L4.51116 22.097Z" fill="#F48B19"/>
<path d="M6.30948 23.9064L12.7429 20.4139C19.7469 24.2162 19.2658 23.9977 19.5339 23.9977C20.0077 23.9977 20.3725 23.5566 20.2916 23.0697L19.063 15.6722L24.2677 10.4332C24.7228 9.97493 24.4712 9.17378 23.8416 9.07926L16.6489 8L5.49994 23.8461C5.73664 24.0236 6.05041 24.047 6.30948 23.9064Z" fill="#F2D422"/>
<path d="M24.4623 9L12.7429 12.8281L5.49994 22.8501C5.73664 23.023 6.05041 23.0458 6.30944 22.9089L12.7429 19.5088C19.747 23.2105 19.2659 22.9977 19.534 22.9977C20.0078 22.9977 20.3726 22.5684 20.2917 22.0943L19.063 14.8925L24.2678 9.79219C24.4773 9.58683 24.5527 9.27975 24.4623 9Z" fill="#F7AC16"/>
<path d="M19.2435 15.0296L12.8393 13L5.49994 22.8527C5.73979 23.0226 6.05774 23.045 6.32021 22.9104L12.8393 19.5678C19.9365 23.2069 19.4491 22.9978 19.7207 22.9978C20.2008 22.9978 20.5705 22.5757 20.4885 22.1096L19.2435 15.0296Z" fill="#F2D422"/>
<path d="M5.49994 22.8527C5.74504 23.0226 6.06995 23.045 6.33817 22.9104L12.9999 19.5678C20.2526 23.2069 19.7544 22.9978 20.032 22.9978C20.1971 22.9978 20.3613 22.9488 20.4999 22.8527L12.9999 13L5.49994 22.8527Z" fill="#F7AC16"/>
<path d="M12.4999 13.0001L12.4999 13L5.49994 22.8549C5.7287 23.0249 6.03194 23.0473 6.28228 22.9127L12.4999 19.5693H12.4999V13.0001Z" fill="#F2D422"/>
<path d="M8.49994 19L5.49994 22.8557C5.74914 23.0247 6.07947 23.047 6.35216 22.9132L8.34357 21.9356C8.13871 21.7633 8.03998 21.504 8.08727 21.2467L8.49994 19Z" fill="#EFB616"/>
</g>
<defs>
<clipPath id="clip0_2676_30555">
<rect width="24" height="24" fill="white" transform="translate(0.5)"/>
</clipPath>
</defs>
</svg>
