<svg width="31" height="30" viewBox="0 0 31 30" fill="none" xmlns="http://www.w3.org/2000/svg">
<path d="M8.73687 27.289C7.35989 25.7242 5.98296 24.0969 5.10667 22.1566C4.23044 20.0912 3.98006 17.7128 4.41821 15.4596C4.85635 13.2064 5.85774 11.0783 7.29734 9.26324C7.17218 10.828 7.73548 12.4553 8.79948 13.6445C8.17357 10.6402 9.17502 7.38556 11.1779 5.00719C13.1807 2.62881 15.9347 1.064 18.8137 0C17.3742 1.50214 17.1864 3.88052 17.7497 5.88342C18.313 7.88626 19.5023 9.63878 20.5663 11.4539C21.6303 13.2689 22.6317 15.1466 22.6943 17.2121C23.2576 16.1481 23.8835 15.084 24.2591 13.8948C24.6346 12.7056 24.8224 11.4539 24.5094 10.2646C25.6361 11.6416 26.262 13.0185 26.5749 14.7711C26.8878 16.5236 26.8253 18.3387 26.6375 20.0912C26.3871 22.0315 25.8864 24.0343 24.8224 25.6616C23.5707 27.6019 21.5678 28.9788 19.3772 29.7299C15.4965 30.4184 11.6786 29.8551 8.73687 27.289Z" fill="#F3705A"/>
<path d="M13.4936 29.6047C18.6259 31.6076 23.6957 25.5365 20.8792 20.8423C20.8792 20.7796 20.8165 20.7796 20.8165 20.7171C21.0669 23.2832 20.441 25.1609 19.2518 26.225C19.8777 24.7228 19.4396 22.9703 18.6885 21.4682C17.9374 20.0286 16.8734 18.7143 16.0597 17.3373C15.2461 15.8977 14.6202 14.2704 14.9957 12.6431C13.4936 13.7697 12.4296 15.4596 11.9914 17.2747C11.5533 19.0897 11.8037 21.0926 12.6174 22.7825C11.6785 22.0941 10.9901 20.9675 10.9274 19.7783C9.92599 20.9675 9.30014 22.5322 9.36269 24.0969C9.36275 26.5379 11.303 28.7285 13.4936 29.6047Z" fill="#FFD15C"/>
</svg>
