<svg width="40" height="40" viewBox="0 0 40 40" fill="none" xmlns="http://www.w3.org/2000/svg">
<g clip-path="url(#clip0_2676_31844)">
<path d="M0 5.71429C0 4.19876 0.602039 2.74531 1.67368 1.67368C2.74531 0.602039 4.19876 0 5.71429 0H34.2857C35.8012 0 37.2547 0.602039 38.3263 1.67368C39.398 2.74531 40 4.19876 40 5.71429V34.2857C40 35.8012 39.398 37.2547 38.3263 38.3263C37.2547 39.398 35.8012 40 34.2857 40H5.71429C4.19876 40 2.74531 39.398 1.67368 38.3263C0.602039 37.2547 0 35.8012 0 34.2857V5.71429Z" fill="url(#paint0_linear_2676_31844)"/>
<path d="M19.1337 9.58369C19.3666 9.35987 19.677 9.23486 20 9.23486C20.323 9.23486 20.6334 9.35987 20.8662 9.58369L27.5075 15.9749C28.3187 16.7549 27.7662 18.1249 26.6412 18.1249H22.8125C22.7296 18.1249 22.6501 18.1579 22.5915 18.2165C22.5329 18.2751 22.5 18.3546 22.5 18.4374V30.6249C22.5 30.9565 22.3683 31.2744 22.1339 31.5088C21.8994 31.7432 21.5815 31.8749 21.25 31.8749H18.75C18.4185 31.8749 18.1005 31.7432 17.8661 31.5088C17.6317 31.2744 17.5 30.9565 17.5 30.6249V18.4374C17.5 18.3546 17.4671 18.2751 17.4085 18.2165C17.3499 18.1579 17.2704 18.1249 17.1875 18.1249H13.3587C12.2337 18.1249 11.6812 16.7549 12.4925 15.9749L19.1337 9.58369Z" fill="white"/>
</g>
<defs>
<linearGradient id="paint0_linear_2676_31844" x1="0" y1="20" x2="40" y2="20" gradientUnits="userSpaceOnUse">
<stop stop-color="#2B526F"/>
<stop offset="1" stop-color="#539DD5" stop-opacity="0.7"/>
</linearGradient>
<clipPath id="clip0_2676_31844">
<rect width="40" height="40" fill="white"/>
</clipPath>
</defs>
</svg>
